<svg width="144" height="127" viewBox="0 0 144 127" fill="none" xmlns="http://www.w3.org/2000/svg">
<path d="M126.476 4.00002L126.476 8.00002L126.476 4.00002ZM62.7302 4L62.7302 0L62.7302 4ZM49.3968 20.9524V24.9524H53.3968V20.9524H49.3968ZM22.9547 27.6707L19.4817 25.6861L19.4817 25.6861L22.9547 27.6707ZM4.19116 60.5079L0.718163 58.5233L0.191153 59.4456L0.191162 60.5079L4.19116 60.5079ZM4.19146 94.7301L8.19146 94.7301L4.19146 94.7301ZM35.2699 126.667C45.2812 126.667 53.3969 118.551 53.3969 108.54H45.3969C45.3969 114.133 40.8629 118.667 35.2699 118.667V126.667ZM17.1429 108.54C17.1429 118.551 25.2587 126.667 35.2699 126.667V118.667C29.6769 118.667 25.1429 114.133 25.1429 108.54H17.1429ZM35.2699 90.4131C25.2587 90.4131 17.1429 98.5288 17.1429 108.54H25.1429C25.1429 102.947 29.6769 98.4131 35.2699 98.4131V90.4131ZM53.3969 108.54C53.3969 98.5288 45.2812 90.4131 35.2699 90.4131V98.4131C40.8629 98.4131 45.3969 102.947 45.3969 108.54H53.3969ZM124.508 108.54C124.508 114.133 119.974 118.667 114.381 118.667V126.667C124.392 126.667 132.508 118.551 132.508 108.54H124.508ZM114.381 98.4131C119.974 98.4131 124.508 102.947 124.508 108.54H132.508C132.508 98.5288 124.392 90.4131 114.381 90.4131V98.4131ZM104.254 108.54C104.254 102.947 108.788 98.4131 114.381 98.4131V90.4131C104.37 90.4131 96.2538 98.5288 96.2538 108.54H104.254ZM114.381 118.667C108.788 118.667 104.254 114.133 104.254 108.54H96.2538C96.2538 118.551 104.37 126.667 114.381 126.667V118.667ZM17.5248 112.063H20V104.063H17.5248V112.063ZM49.3968 112.063H100V104.063H49.3968V112.063ZM143.81 96.2537V17.3334H135.81V96.2537H143.81ZM126.476 2.1135e-05L62.7302 0L62.7302 8L126.476 8.00002L126.476 2.1135e-05ZM45.3968 17.3333V20.9524H53.3968V17.3333H45.3968ZM49.3968 16.9524H34.5314V24.9524H49.3968V16.9524ZM19.4817 25.6861L0.718163 58.5233L7.66416 62.4924L26.4277 29.6552L19.4817 25.6861ZM0.191162 60.5079L0.191462 94.7302L8.19146 94.7301L8.19116 60.5078L0.191162 60.5079ZM34.5314 16.9524C28.3111 16.9524 22.5678 20.2854 19.4817 25.6861L26.4277 29.6552C28.0894 26.7471 31.182 24.9524 34.5314 24.9524V16.9524ZM62.7302 0C53.1572 -3.17391e-06 45.3968 7.76039 45.3968 17.3333H53.3968C53.3968 12.1787 57.5755 8 62.7302 8L62.7302 0ZM143.81 17.3334C143.81 7.76044 136.049 2.43089e-05 126.476 2.1135e-05L126.476 8.00002C131.631 8.00002 135.81 12.1787 135.81 17.3334H143.81ZM128.666 112.05C137.09 111.699 143.81 104.762 143.81 96.2537H135.81C135.81 100.455 132.49 103.883 128.333 104.056L128.666 112.05ZM17.5248 104.063C12.3702 104.063 8.19151 99.8847 8.19146 94.7301L0.191462 94.7302C0.191545 104.303 7.95193 112.063 17.5248 112.063V104.063Z" fill="white"/>
</svg>
