<svg width="128" height="61" viewBox="0 0 128 61" fill="none" xmlns="http://www.w3.org/2000/svg">
<path fill-rule="evenodd" clip-rule="evenodd" d="M86.7253 51.4336C87.2083 51.4336 87.3797 51.5399 87.3797 52.0881V55.0587C87.3797 55.6005 87.2083 55.7368 86.7253 55.7368H86.3889V51.4336H86.7253ZM121.376 54.3078C121.859 54.3078 122.007 54.4274 122.007 54.9558V56.0724C122.007 56.597 121.859 56.72 121.376 56.72H120.893V54.3078H121.376ZM83.2858 52.1078C83.2858 51.5695 83.4641 51.4336 83.9389 51.4336H84.2852V55.7368H83.9389C83.4641 55.7368 83.2858 55.6103 83.2858 55.0686V52.1078ZM42.6672 61H128V46.8081H42.6672V61ZM51.9329 49.111H49.7677V52.6761H48.6548V49.111H46.4914V58.3517H48.6548V54.3078H49.7677V58.3517H51.9329V49.111ZM69.8694 49.1041H64.678V58.3585H69.8694V56.6038H66.9098V54.4274H69.5579V52.6761H66.9098V50.8554H69.8694V49.1041ZM89.4766 52.1712C89.4766 50.2836 88.5558 49.8053 86.3889 49.8053V49.111H84.2852V49.8053C82.1136 49.8053 81.1855 50.2836 81.1855 52.1712V55.0587C81.1855 56.933 82.1531 57.4379 84.2852 57.4379V58.3517H86.3889V57.4379C88.521 57.4379 89.4766 56.933 89.4766 55.0587V52.1712ZM106.116 49.1041H100.668V50.8554H102.425V58.3585H104.482V50.8554H106.116V49.1041ZM124.168 55.0189C124.168 53.1711 123.381 52.6761 121.258 52.6761H120.893V49.111H118.729V58.3517H120.893C123.245 58.3517 124.168 57.9929 124.168 55.9695V55.0189ZM36.9594 39.7173V54.2778C33.0652 58.4082 27.5236 61 21.3693 61C9.57198 61 0 51.4932 0 39.7705C0 28.0542 9.57198 18.5478 21.3693 18.5478V34.5072C18.2996 34.5072 15.2283 35.67 12.8865 37.996C12.3271 38.5477 11.8373 39.1426 11.4127 39.7705C8.26962 44.4058 8.75774 50.7525 12.8865 54.8526C15.2283 57.1722 18.2996 58.3418 21.3693 58.3418C24.4239 58.3418 27.4823 57.1889 29.8224 54.8791C29.834 54.8658 29.846 54.8594 29.8589 54.8496V54.8427L29.889 54.8195C32.2359 52.4901 32.2359 48.7055 29.889 46.3829C27.5421 44.0501 23.7428 44.0501 21.3976 46.3829C21.3826 46.3894 21.3762 46.3962 21.3693 46.4061V39.7173H36.9594ZM34.3014 11.0048C35.5904 16.6572 35.5668 20.1327 35.0073 24.0969C33.9929 31.2344 30.7432 36.6901 29.336 38.5211C28.3696 37.2781 26.8911 34.743 25.905 32.3775C25.905 32.3775 24.0393 27.875 23.5465 23.4887C23.0532 19.0994 23.265 14.6402 24.7023 9.61913C26.0197 5.10723 28.6047 1.05308 29.3128 0C29.7571 0.747483 33.0067 5.34982 34.3014 11.0048ZM29.3128 37.1157C29.9723 35.8959 31.105 33.2214 31.0049 29.8222C30.8669 26.3531 29.6909 23.811 29.336 23.2028C28.9312 23.811 27.5687 26.7251 27.5919 30.1312C27.689 33.6432 28.6781 35.9229 29.3128 37.1157ZM33.928 20.6012C33.9679 18.4445 33.7595 14.7795 32.7038 10.9551C31.6447 7.13066 29.5908 3.49225 29.2879 3.01993C28.9862 3.49225 27.3603 6.44618 25.9247 11.0712C25.5466 12.4569 24.8656 15.4644 24.7474 18.3948C24.6091 21.95 25.092 25.4757 25.2871 26.4726C25.2871 25.2966 25.3103 21.3753 26.0399 18.1389C26.7708 14.8957 28.1599 11.1642 29.2879 9.26724C30.512 11.2641 32.046 15.5737 32.5822 18.159C33.127 20.7439 33.4098 24.0502 33.2933 26.3929C33.6199 25.0338 33.8781 22.7575 33.928 20.6012ZM122.669 18.4381H128V39.7207H123.896V26.3728H123.754L121.642 39.7207H118.364L116.258 26.3728H116.118V39.7207H112.012V18.4381H117.335L119.993 33.3941L122.669 18.4381ZM93.3789 30.141C93.8254 30.141 94.1438 29.7489 94.1438 29.0777V22.1429C94.1438 21.4751 93.8254 21.08 93.3789 21.08H92.3V30.141H93.3789ZM88.2043 18.4381H94.6418C97.5133 18.4381 97.9679 20.7508 97.9679 22.2393V28.6791C97.9679 30.174 97.5133 32.4868 94.6418 32.4868H92.3V39.7207H88.2043V18.4381ZM75.7539 18.4381H85.2378V39.7207H81.4136V21.08H79.575V39.7207H75.7539V18.4381ZM67.6742 32.2678V36.2718C67.6742 36.8234 68.0777 36.976 68.3157 36.976C68.6921 36.976 68.9551 36.6404 68.9551 36.2718V31.324C68.9551 30.6592 68.8416 29.9285 67.3163 29.9285H65.6508V27.5891H67.3747C68.5452 27.5891 68.9551 27.3067 68.9551 26.0106V21.7773C68.9551 21.4121 68.6921 21.08 68.3157 21.08C68.0777 21.08 67.6742 21.2325 67.6742 21.7773V25.2464H63.5686V22.2393C63.5686 20.7508 63.7504 18.4381 66.615 18.4381H70.0142C72.8823 18.4381 73.0594 20.7508 73.0594 22.2393V25.6484C73.0594 27.9547 71.5035 28.5891 70.2725 28.5295V28.7451C73.0241 28.6791 73.0594 30.8718 73.0594 31.633V35.916C73.0594 37.408 72.8823 39.7207 70.0142 39.7207H66.615C63.7504 39.7207 63.5686 37.408 63.5686 35.916V32.2678H67.6742ZM57.2626 31.7226L56.5597 21.08H56.3332L55.6238 31.7226H57.2626ZM53.2253 18.4381H59.6662L61.8048 39.7207H57.7941L57.4143 34.0619H55.4824L55.0944 39.7207H51.092L53.2253 18.4381ZM42.6672 18.4381H50.4874V21.08H46.7647V39.7207H42.6672V18.4381ZM106.543 18.4381C109.414 18.4381 109.594 20.7508 109.594 22.2393V35.916C109.594 37.408 109.414 39.7207 106.543 39.7207H103.151C100.285 39.7207 100.112 37.408 100.112 35.916V22.2393C100.112 20.7508 100.285 18.4381 103.151 18.4381H106.543ZM104.852 37.0891C105.346 37.0891 105.758 36.7102 105.758 36.2418L105.756 36.2152V21.95V21.887L105.749 21.8206C105.706 21.4053 105.317 21.0731 104.845 21.0731C104.375 21.0731 103.999 21.4053 103.944 21.8206V21.887V21.95V36.2152L103.937 36.2418C103.937 36.7102 104.347 37.0891 104.852 37.0891Z" fill="#0079C2"/>
</svg>
