<svg width="192" height="192" viewBox="0 0 192 192" fill="none" xmlns="http://www.w3.org/2000/svg">
<path d="M192 96C192 42.9807 149.019 0 96 0C42.9807 0 0 42.9807 0 96C0 149.019 42.9807 192 96 192C149.019 192 192 149.019 192 96Z" fill="#D9EEF7"/>
<path fill-rule="evenodd" clip-rule="evenodd" d="M7.66978 135.923C11.0013 143.199 15.2153 149.986 20.1747 156.148C49.1623 128.136 80.9899 103.095 115.171 81.4245C127.646 73.5721 140.573 66.5591 153.493 59.5498C161.442 55.2375 169.388 50.9266 177.224 46.4226C160.413 18.6003 129.878 0 95.0005 0C48.395 0 9.54627 33.2107 0.829102 77.2575C25.5166 63.6596 45.8086 52.5249 50.0861 50.574C76.3468 38.6549 103.12 31.1582 131.282 24.9249C134.082 24.3142 138.526 24.1247 137.308 27.8941C136.671 29.9063 133.604 31.7082 131.547 32.9166C131.258 33.0866 130.988 33.2449 130.748 33.3904C88.1418 59.1237 50.4921 92.5433 15.6842 127.753C12.9933 130.455 10.3219 133.179 7.66978 135.923ZM181.154 138.399C144.843 141.341 108.579 146.475 73.3553 154.813C60.6487 157.831 48.0704 161.341 35.6202 165.342C33.8807 165.89 32.1429 166.449 30.4076 167.02C47.4611 182.54 70.1259 192 95.0005 192C132.8 192 165.497 170.154 181.154 138.399Z" fill="#C4E5F0"/>
</svg>
