<svg width="36" height="32" viewBox="0 0 36 32" fill="none" xmlns="http://www.w3.org/2000/svg">
<path d="M31.6191 1.00001V2.00001V1.00001ZM15.6825 1V0V1ZM12.3492 5.23809V6.23809H13.3492V5.23809H12.3492ZM5.73868 6.91766L4.87043 6.42154L4.87043 6.42154L5.73868 6.91766ZM1.04779 15.127L0.179541 14.6308L0.0477883 14.8614L0.0477905 15.127L1.04779 15.127ZM1.04787 23.6825L2.04787 23.6825L1.04787 23.6825ZM8.81747 31.6666C11.3203 31.6666 13.3492 29.6377 13.3492 27.1349H11.3492C11.3492 28.5331 10.2157 29.6666 8.81747 29.6666V31.6666ZM4.28572 27.1349C4.28572 29.6377 6.31465 31.6666 8.81747 31.6666V29.6666C7.41922 29.6666 6.28572 28.5331 6.28572 27.1349H4.28572ZM8.81747 22.6032C6.31465 22.6032 4.28572 24.6321 4.28572 27.1349H6.28572C6.28572 25.7367 7.41922 24.6032 8.81747 24.6032V22.6032ZM13.3492 27.1349C13.3492 24.6321 11.3203 22.6032 8.81747 22.6032V24.6032C10.2157 24.6032 11.3492 25.7367 11.3492 27.1349H13.3492ZM31.1269 27.1349C31.1269 28.5331 29.9934 29.6666 28.5952 29.6666V31.6666C31.098 31.6666 33.1269 29.6377 33.1269 27.1349H31.1269ZM28.5952 24.6032C29.9934 24.6032 31.1269 25.7367 31.1269 27.1349H33.1269C33.1269 24.6321 31.098 22.6032 28.5952 22.6032V24.6032ZM26.0635 27.1349C26.0635 25.7367 27.197 24.6032 28.5952 24.6032V22.6032C26.0924 22.6032 24.0635 24.6321 24.0635 27.1349H26.0635ZM28.5952 29.6666C27.197 29.6666 26.0635 28.5331 26.0635 27.1349H24.0635C24.0635 29.6377 26.0924 31.6666 28.5952 31.6666V29.6666ZM4.3812 28.0158H5V26.0158H4.3812V28.0158ZM12.3492 28.0158H25V26.0158H12.3492V28.0158ZM35.9524 24.0634V4.33334H33.9524V24.0634H35.9524ZM31.6191 6.3777e-06L15.6825 0V2L31.6191 2.00001V6.3777e-06ZM11.3492 4.33333V5.23809H13.3492V4.33333H11.3492ZM12.3492 4.23809H8.63284V6.23809H12.3492V4.23809ZM4.87043 6.42154L0.179541 14.6308L1.91604 15.6231L6.60693 7.41379L4.87043 6.42154ZM0.0477905 15.127L0.0478654 23.6825L2.04787 23.6825L2.04779 15.127L0.0477905 15.127ZM8.63284 4.23809C7.07777 4.23809 5.64194 5.07135 4.87043 6.42154L6.60693 7.41379C7.02235 6.68677 7.7955 6.23809 8.63284 6.23809V4.23809ZM15.6825 0C13.2893 0 11.3492 1.9401 11.3492 4.33333H13.3492C13.3492 3.04467 14.3939 2 15.6825 2V0ZM35.9524 4.33334C35.9524 1.94011 34.0123 7.21216e-06 31.6191 6.3777e-06V2.00001C32.9077 2.00001 33.9524 3.04468 33.9524 4.33334H35.9524ZM32.1665 28.0124C34.2725 27.9247 35.9524 26.1905 35.9524 24.0634H33.9524C33.9524 25.1138 33.1226 25.9709 32.0833 26.0141L32.1665 28.0124ZM4.3812 26.0158C3.09254 26.0158 2.04788 24.9712 2.04787 23.6825L0.0478654 23.6825C0.0478864 26.0758 1.98798 28.0158 4.3812 28.0158V26.0158Z" fill="#F6A219"/>
</svg>
