<svg width="38" height="38" viewBox="0 0 38 38" fill="none" xmlns="http://www.w3.org/2000/svg">
<path d="M32.6889 15.3321L31.711 15.1229L31.6041 15.6227L31.9466 16.0022L32.6889 15.3321ZM36 19L36.7423 19.6701L37.3472 19L36.7423 18.3299L36 19ZM33.7225 10.5L34.7004 10.7092L34.8892 9.82639L34.0303 9.54853L33.7225 10.5ZM29.021 8.97904L28.0695 9.28685L28.2268 9.77317L28.7132 9.93049L29.021 8.97904ZM27.4999 4.27757L28.4514 3.96976L28.1735 3.11087L27.2908 3.29969L27.4999 4.27757ZM22.6679 5.31114L21.9979 6.05343L22.3773 6.39594L22.8771 6.28902L22.6679 5.31114ZM19 2L19.67 1.25771L19 0.652812L18.3299 1.25772L19 2ZM15.3321 5.31114L15.1229 6.28902L15.6227 6.39594L16.0022 6.05342L15.3321 5.31114ZM10.5 4.27757L10.7091 3.29969L9.82638 3.11087L9.54853 3.96978L10.5 4.27757ZM8.97911 8.97904L9.28689 9.93049L9.77324 9.77317L9.93056 9.28683L8.97911 8.97904ZM4.27764 10.4999L3.96985 9.54846L3.11094 9.82631L3.29976 10.7091L4.27764 10.4999ZM5.31121 15.332L6.05349 16.0021L6.396 15.6227L6.28909 15.1228L5.31121 15.332ZM2 19L1.25772 18.3299L0.652805 19L1.25772 19.67L2 19ZM5.31114 22.6679L6.28902 22.877L6.39594 22.3772L6.05343 21.9978L5.31114 22.6679ZM4.27757 27.4999L3.29969 27.2907L3.11087 28.1735L3.96976 28.4513L4.27757 27.4999ZM8.97904 29.0209L9.93049 28.7131L9.77317 28.2268L9.28685 28.0694L8.97904 29.0209ZM10.5 33.7224L9.54853 34.0302L9.82639 34.8891L10.7092 34.7003L10.5 33.7224ZM15.3321 32.6888L16.0022 31.9465L15.6227 31.604L15.1229 31.7109L15.3321 32.6888ZM19 35.9999L18.3299 36.7422L19 37.3471L19.6701 36.7422L19 35.9999ZM22.6679 32.6888L22.877 31.7109L22.3772 31.604L21.9978 31.9465L22.6679 32.6888ZM27.4999 33.7224L27.2907 34.7003L28.1735 34.8891L28.4513 34.0302L27.4999 33.7224ZM29.0209 29.0209L28.7131 28.0694L28.2268 28.2268L28.0694 28.7131L29.0209 29.0209ZM33.7224 27.4999L34.0302 28.4513L34.8891 28.1735L34.7003 27.2907L33.7224 27.4999ZM32.6888 22.6679L31.9465 21.9978L31.604 22.3772L31.7109 22.877L32.6888 22.6679ZM31.9466 16.0022L35.2577 19.67L36.7423 18.3299L33.4311 14.662L31.9466 16.0022ZM32.7446 10.2908L31.711 15.1229L33.6667 15.5412L34.7004 10.7092L32.7446 10.2908ZM28.7132 9.93049L33.4147 11.4514L34.0303 9.54853L29.3288 8.02759L28.7132 9.93049ZM26.5485 4.58538L28.0695 9.28685L29.9724 8.67123L28.4514 3.96976L26.5485 4.58538ZM22.8771 6.28902L27.7091 5.25545L27.2908 3.29969L22.4588 4.33326L22.8771 6.28902ZM18.3299 2.74229L21.9979 6.05343L23.338 4.56885L19.67 1.25771L18.3299 2.74229ZM16.0022 6.05342L19.6701 2.74228L18.3299 1.25772L14.662 4.56886L16.0022 6.05342ZM10.2908 5.25545L15.1229 6.28902L15.5412 4.33326L10.7091 3.29969L10.2908 5.25545ZM9.93056 9.28683L11.4514 4.58536L9.54853 3.96978L8.02765 8.67125L9.93056 9.28683ZM4.58542 11.4514L9.28689 9.93049L8.67132 8.02758L3.96985 9.54846L4.58542 11.4514ZM6.28909 15.1228L5.25552 10.2907L3.29976 10.7091L4.33333 15.5412L6.28909 15.1228ZM2.74228 19.67L6.05349 16.0021L4.56893 14.6619L1.25772 18.3299L2.74228 19.67ZM6.05343 21.9978L2.74228 18.3299L1.25772 19.67L4.56886 23.3379L6.05343 21.9978ZM5.25545 27.709L6.28902 22.877L4.33326 22.4587L3.29969 27.2907L5.25545 27.709ZM9.28685 28.0694L4.58538 26.5484L3.96976 28.4513L8.67123 29.9723L9.28685 28.0694ZM11.4514 33.4146L9.93049 28.7131L8.02759 29.3287L9.54853 34.0302L11.4514 33.4146ZM15.1229 31.7109L10.2908 32.7445L10.7092 34.7003L15.5412 33.6667L15.1229 31.7109ZM19.6701 35.2576L16.0022 31.9465L14.662 33.4311L18.3299 36.7422L19.6701 35.2576ZM21.9978 31.9465L18.3299 35.2576L19.6701 36.7422L23.338 33.4311L21.9978 31.9465ZM27.7091 32.7445L22.877 31.7109L22.4587 33.6667L27.2907 34.7003L27.7091 32.7445ZM28.0694 28.7131L26.5484 33.4146L28.4513 34.0302L29.9723 29.3287L28.0694 28.7131ZM33.4146 26.5484L28.7131 28.0694L29.3287 29.9723L34.0302 28.4513L33.4146 26.5484ZM31.7109 22.877L32.7445 27.7091L34.7003 27.2907L33.6667 22.4587L31.7109 22.877ZM35.2577 18.3299L31.9465 21.9978L33.4311 23.338L36.7423 19.6701L35.2577 18.3299ZM14.75 18.5833C16.8671 18.5833 18.5834 16.8671 18.5834 14.75H16.5834C16.5834 15.7625 15.7625 16.5833 14.75 16.5833V18.5833ZM10.9167 14.75C10.9167 16.8671 12.6329 18.5833 14.75 18.5833V16.5833C13.7375 16.5833 12.9167 15.7625 12.9167 14.75H10.9167ZM14.75 10.9167C12.6329 10.9167 10.9167 12.6329 10.9167 14.75H12.9167C12.9167 13.7375 13.7375 12.9167 14.75 12.9167V10.9167ZM18.5834 14.75C18.5834 12.6329 16.8671 10.9167 14.75 10.9167V12.9167C15.7625 12.9167 16.5834 13.7375 16.5834 14.75H18.5834ZM25.0833 23.25C25.0833 24.2625 24.2625 25.0833 23.25 25.0833V27.0833C25.3671 27.0833 27.0833 25.3671 27.0833 23.25H25.0833ZM23.25 21.4167C24.2625 21.4167 25.0833 22.2375 25.0833 23.25H27.0833C27.0833 21.1329 25.3671 19.4167 23.25 19.4167V21.4167ZM21.4167 23.25C21.4167 22.2375 22.2375 21.4167 23.25 21.4167V19.4167C21.1329 19.4167 19.4167 21.1329 19.4167 23.25H21.4167ZM23.25 25.0833C22.2375 25.0833 21.4167 24.2625 21.4167 23.25H19.4167C19.4167 25.3671 21.1329 27.0833 23.25 27.0833V25.0833Z" fill="#F6A219"/>
</svg>
