<svg width="32" height="39" viewBox="0 0 32 39" fill="none" xmlns="http://www.w3.org/2000/svg">
<path d="M16 2L16.3257 1.05454L16 0.942314L15.6743 1.05454L16 2ZM30.9272 7.14285H31.9272V6.42969L31.253 6.19739L30.9272 7.14285ZM1.07279 7.14285L0.747048 6.19739L0.072786 6.42969V7.14285H1.07279ZM1.06103 7.57505L0.0615442 7.54309L1.06103 7.57505ZM4.18336 28.9932L5.02448 28.4524L5.01241 28.4336L4.99951 28.4154L4.18336 28.9932ZM27.8166 28.9932L27.0005 28.4154L26.9876 28.4336L26.9755 28.4524L27.8166 28.9932ZM30.939 7.57505L31.9385 7.54309V7.54309L30.939 7.57505ZM15.6743 2.94546L30.6015 8.08831L31.253 6.19739L16.3257 1.05454L15.6743 2.94546ZM1.39852 8.08831L16.3257 2.94546L15.6743 1.05454L0.747048 6.19739L1.39852 8.08831ZM2.06052 7.60701C2.06716 7.39936 2.07279 7.22829 2.07279 7.14285H0.072786C0.072786 7.18672 0.0689728 7.31077 0.0615442 7.54309L2.06052 7.60701ZM4.99951 28.4154C4.19941 27.2853 3.57987 25.6197 3.12103 23.6305C2.66604 21.658 2.38674 19.448 2.22092 17.2893C1.88934 12.9728 2.01756 8.95058 2.06052 7.60701L0.0615442 7.54309C0.0182865 8.8959 -0.11367 13.0103 0.226796 17.4425C0.396998 19.6582 0.686786 21.9756 1.1722 24.08C1.65377 26.1678 2.34597 28.1286 3.36721 29.5711L4.99951 28.4154ZM16 37C16.0085 37 15.8618 36.9849 15.4933 36.8294C15.1619 36.6897 14.7431 36.477 14.2545 36.1974C13.2799 35.6397 12.0904 34.8519 10.8747 33.9529C8.40479 32.1263 5.99803 29.9664 5.02448 28.4524L3.34224 29.5341C4.52979 31.3809 7.20207 33.7244 9.68553 35.561C10.9465 36.4935 12.2023 37.3273 13.2612 37.9332C13.7893 38.2355 14.2842 38.4901 14.7161 38.6722C15.1108 38.8387 15.5769 39 16 39V37ZM26.9755 28.4524C26.002 29.9664 23.5952 32.1263 21.1253 33.9529C19.9096 34.8519 18.7201 35.6397 17.7455 36.1974C17.2569 36.477 16.8381 36.6897 16.5067 36.8294C16.1382 36.9849 15.9915 37 16 37V39C16.4231 39 16.8892 38.8387 17.2839 38.6722C17.7158 38.4901 18.2107 38.2355 18.7388 37.9332C19.7977 37.3273 21.0535 36.4935 22.3145 35.561C24.7979 33.7244 27.4702 31.3809 28.6578 29.5341L26.9755 28.4524ZM29.9395 7.60701C29.9824 8.95058 30.1107 12.9728 29.7791 17.2893C29.6133 19.448 29.334 21.658 28.879 23.6305C28.4201 25.6197 27.8006 27.2853 27.0005 28.4154L28.6328 29.5711C29.654 28.1286 30.3462 26.1678 30.8278 24.0801C31.3132 21.9756 31.603 19.6582 31.7732 17.4425C32.1137 13.0103 31.9817 8.89591 31.9385 7.54309L29.9395 7.60701ZM29.9272 7.14285C29.9272 7.22829 29.9328 7.39936 29.9395 7.60701L31.9385 7.54309C31.931 7.31077 31.9272 7.18672 31.9272 7.14285H29.9272ZM24 18.5C24 22.9183 20.4183 26.5 16 26.5V28.5C21.5228 28.5 26 24.0228 26 18.5H24ZM16 10.5C20.4183 10.5 24 14.0817 24 18.5H26C26 12.9771 21.5228 8.49998 16 8.49998V10.5ZM8 18.5C8 14.0817 11.5817 10.5 16 10.5V8.49998C10.4772 8.49998 6 12.9771 6 18.5H8ZM16 26.5C11.5817 26.5 8 22.9183 8 18.5H6C6 24.0228 10.4772 28.5 16 28.5V26.5Z" fill="#F6A219"/>
</svg>
